<?xml version="1.0" encoding="utf-8"?><svg version="1.1" id="Layer_1" xmlns="http://www.w3.org/2000/svg" xmlns:xlink="http://www.w3.org/1999/xlink" x="0px" y="0px" viewBox="0 0 122.88 114.54" style="enable-background:new 0 0 122.88 114.54" xml:space="preserve"><style type="text/css">.st0{fill-rule:evenodd;clip-rule:evenodd;}</style><g><path class="st0" d="M61.44,90.63c1.22,0,2.21,0.99,2.21,2.21c0,1.22-0.99,2.21-2.21,2.21c-1.22,0-2.21-0.99-2.21-2.21 C59.23,91.62,60.22,90.63,61.44,90.63L61.44,90.63z M53.75,52.22c-0.84-0.56-1.07-1.69-0.51-2.53c0.56-0.84,1.69-1.07,2.53-0.51 c3.88,2.58,7.76,2.54,11.64-0.01c0.85-0.55,1.98-0.32,2.53,0.53c0.55,0.85,0.32,1.98-0.53,2.53C64.19,55.64,58.97,55.7,53.75,52.22 L53.75,52.22z M47.36,35.9c-0.87,0.51-1.99,0.21-2.5-0.67c-0.51-0.87-0.21-1.99,0.67-2.5c1.63-0.94,3.27-1.34,4.93-1.31 c1.61,0.03,3.19,0.48,4.75,1.25c0.9,0.45,1.28,1.54,0.83,2.45c-0.45,0.9-1.54,1.28-2.45,0.83c-1.1-0.55-2.17-0.86-3.2-0.88 C49.39,35.06,48.39,35.31,47.36,35.9L47.36,35.9z M70.26,35.9c-0.87,0.51-1.99,0.21-2.5-0.67c-0.51-0.87-0.21-1.99,0.66-2.5 c1.63-0.94,3.27-1.34,4.93-1.31c1.61,0.03,3.19,0.48,4.75,1.25c0.9,0.45,1.28,1.54,0.83,2.45c-0.45,0.9-1.54,1.28-2.44,0.83 c-1.1-0.55-2.17-0.86-3.2-0.88C72.29,35.06,71.28,35.31,70.26,35.9L70.26,35.9z M19.63,92.84c0-1.01,0.82-1.83,1.83-1.83 c1.01,0,1.83,0.82,1.83,1.83v19.87c0,1.01-0.82,1.83-1.83,1.83c-1.01,0-1.83-0.82-1.83-1.83V92.84L19.63,92.84z M99.59,92.84 c0-1.01,0.82-1.83,1.83-1.83s1.83,0.82,1.83,1.83v19.87c0,1.01-0.82,1.83-1.83,1.83s-1.83-0.82-1.83-1.83V92.84L99.59,92.84z M85.62,44.35c4.64,2.32,8.96,4.7,13.14,7.22c4.31,2.6,8.47,5.34,12.71,8.34c0.08,0.06,0.15,0.12,0.22,0.18 c3.07,2.58,5.66,5.75,7.6,9.89c1.93,4.13,3.19,9.2,3.59,15.58c0,0.04,0,0.07,0,0.11h0v25.88c0,1.01-0.82,1.83-1.83,1.83 c-1.01,0-1.83-0.82-1.83-1.83V85.67h0c-0.38-5.85-1.51-10.45-3.24-14.14c-1.69-3.62-3.96-6.39-6.64-8.64 c-4.15-2.93-8.24-5.63-12.48-8.18c-1.1-0.66-2.2-1.31-3.33-1.96c-3.49,15.88-9.62,27.62-18.47,35.23 c-5.01-3.15-9.36-6.65-13.32-10.85c-3.83,3.99-8.12,7.44-13.25,10.39c-9.18-7.29-15.03-19.43-18.23-35.43 c-1.36,0.79-2.71,1.59-4.04,2.4c-4.33,2.65-8.52,5.45-12.69,8.4c-2.68,2.25-4.95,5.03-6.64,8.64c-1.73,3.7-2.86,8.29-3.24,14.14h0 v25.88c0,1.01-0.82,1.83-1.83,1.83c-1.01,0-1.83-0.82-1.83-1.83V85.67h0c0-0.04,0-0.07,0-0.11c0.4-6.38,1.66-11.45,3.59-15.58 c1.93-4.14,4.53-7.31,7.6-9.89c0.07-0.06,0.14-0.13,0.22-0.18c4.22-2.98,8.48-5.83,12.91-8.54c4.22-2.58,8.56-5.03,13.11-7.32 l-0.08-1.06c-2.21-1.44-3.51-3.59-3.93-6.08c-0.42-2.5,0.08-5.32,1.47-8.06l0.07-0.13c-1.62-4.48-1.64-8.65-0.18-12.53 c1.52-4.04,4.62-7.69,9.18-10.98c0.04-0.03,0.08-0.06,0.13-0.08l0,0C49.97,1.61,55.86-0.05,61.77,0c5.89,0.05,11.76,1.8,17.6,5.1 l0.01,0.01l0,0c4.16,2.39,7.32,5.37,9.1,9.16c1.74,3.72,2.12,8.13,0.77,13.43c0.76,3.1,1.09,6.02,0.63,8.59 c-0.47,2.67-1.73,4.94-4.12,6.66L85.62,44.35L85.62,44.35z M45.52,60.28c2.21,7.42,7.34,13.26,16.2,16.79 c7.61-2.21,13.7-8.91,16.95-17.29l-0.32-0.32c0.1,0.1-3.41,2.47-5.35,3.37c-3.33,1.55-7.07,2.42-10.83,2.55 c-3.76,0.14-7.56-0.46-11-1.85C49.14,62.72,47.23,61.64,45.52,60.28L45.52,60.28z M48.16,6.99c-0.05,4.55-0.81,8.74-2.29,12.55 c-1.57,4.03-3.94,7.61-7.15,10.67c-0.2,0.19-0.42,0.32-0.66,0.4c-1,2.01-1.36,4-1.07,5.71c0.27,1.6,1.13,2.96,2.59,3.82 c0.05,0.03,0.16,0.09,0.33,0.17l0,0c0.55,0.28,0.94,0.83,0.98,1.48l0.23,3.13c0.97,7.97,5.59,12.94,11.38,15.27 c2.98,1.2,6.26,1.71,9.53,1.6c3.28-0.12,6.53-0.88,9.44-2.23c5.7-2.64,10.03-7.59,10.42-14.48c0-0.05,0-0.11,0.01-0.16l0.36-3.2h0 c0.06-0.54,0.36-1.04,0.85-1.34c1.89-1.15,2.85-2.77,3.2-4.7c0.32-1.8,0.14-3.89-0.35-6.16c-0.24,0-0.48-0.05-0.7-0.16 c-3.4-1.5-6.09-4.75-7.94-8.85c-1.83-4.06-2.84-9-2.87-13.88c-4.25-1.95-8.49-2.98-12.71-3.02C57.23,3.57,52.7,4.67,48.16,6.99 L48.16,6.99z M37.85,25.85c2-2.28,3.53-4.83,4.62-7.63c1.05-2.7,1.69-5.65,1.93-8.81c-3.06,2.51-5.17,5.18-6.24,8.03 C37.19,20.04,37.07,22.84,37.85,25.85L37.85,25.85z M86.02,25.64c0.81-3.91,0.47-7.15-0.8-9.84c-1.36-2.9-3.81-5.26-7.05-7.23 c0.25,3.71,1.11,7.36,2.49,10.43C82.01,21.99,83.83,24.39,86.02,25.64L86.02,25.64z M61.44,108.07c1.22,0,2.21,0.99,2.21,2.21 c0,1.22-0.99,2.21-2.21,2.21c-1.22,0-2.21-0.99-2.21-2.21C59.23,109.05,60.22,108.07,61.44,108.07L61.44,108.07z M61.44,99.35 c1.22,0,2.21,0.99,2.21,2.21c0,1.22-0.99,2.21-2.21,2.21c-1.22,0-2.21-0.99-2.21-2.21C59.23,100.34,60.22,99.35,61.44,99.35 L61.44,99.35z"/></g></svg>